<svg width="151" height="137" viewBox="0 0 151 137" fill="none" xmlns="http://www.w3.org/2000/svg">
<path d="M36.2225 131.125C36.2225 128.724 38.1685 126.778 40.5691 126.778H104.32C106.721 126.778 108.667 128.724 108.667 131.125V135.472C108.667 136.272 108.018 136.921 107.218 136.921H37.6714C36.8712 136.921 36.2225 136.272 36.2225 135.472V131.125Z" fill="#C83600"/>
<rect x="132.672" y="22.1926" width="5.79557" height="72.4446" rx="1.44889" transform="rotate(27 132.672 22.1926)" fill="#E6D7B8"/>
<line x1="126.423" y1="34.4577" x2="131.587" y2="37.0889" stroke="#C8A17E" stroke-width="1.44889"/>
<line x1="124.45" y1="38.3302" x2="129.614" y2="40.9613" stroke="#C8A17E" stroke-width="1.44889"/>
<rect x="145.72" y="22.1926" width="5.79557" height="72.4446" rx="1.44889" transform="rotate(27 145.72 22.1926)" fill="#E6D7B8"/>
<line x1="139.471" y1="34.4577" x2="144.635" y2="37.0889" stroke="#C8A17E" stroke-width="1.44889"/>
<line x1="137.497" y1="38.3302" x2="142.661" y2="40.9613" stroke="#C8A17E" stroke-width="1.44889"/>
<path d="M0 71.7209C0 70.9207 0.648691 70.272 1.44889 70.272H143.44C144.241 70.272 144.889 70.9207 144.889 71.7209V84.7609C144.889 108.767 125.428 128.228 101.422 128.228H43.4668C19.4607 128.228 0 108.767 0 84.7609V71.7209Z" fill="#EE4101"/>
<path d="M36.6697 2.17368C36.6697 2.17368 30.6216 12.4756 31.5987 18.1115C32.4218 22.8585 39.0893 27.1285 38.2688 31.876C37.4069 36.863 34.5742 39.3664 33.0474 44.1916C31.2211 49.963 35.9452 56.5072 35.9452 56.5072" stroke="#F0F0F0" stroke-width="4.34668" stroke-linecap="round"/>
<path d="M60.0217 2.17368C60.0217 2.17368 53.9736 12.4756 54.9507 18.1115C55.7738 22.8585 62.4413 27.1285 61.6208 31.876C60.7589 36.863 57.9262 39.3664 56.3994 44.1916C54.5731 49.963 59.2972 56.5072 59.2972 56.5072" stroke="#F0F0F0" stroke-width="4.34668" stroke-linecap="round"/>
<path d="M83.3738 2.17368C83.3738 2.17368 77.3256 12.4756 78.3028 18.1115C79.1258 22.8585 85.7934 27.1285 84.9729 31.876C84.1109 36.863 81.2782 39.3664 79.7514 44.1916C77.9252 49.963 82.6492 56.5072 82.6492 56.5072" stroke="#F0F0F0" stroke-width="4.34668" stroke-linecap="round"/>
</svg>
