<svg width="89" height="154" viewBox="0 0 89 154" fill="none" xmlns="http://www.w3.org/2000/svg">
<path d="M3.64635 48.0838C3.52332 46.1153 5.08667 44.4512 7.05901 44.4512H81.8433C83.8157 44.4512 85.379 46.1153 85.256 48.0838L78.8448 150.664C78.7321 152.466 77.2377 153.87 75.4321 153.87H13.4702C11.6646 153.87 10.1702 152.466 10.0576 150.664L3.64635 48.0838Z" fill="#F0F0F0"/>
<path d="M3.41931 44.4512H85.483L82.1706 97.4507H6.73178L3.41931 44.4512Z" fill="#EE4101"/>
<rect x="6.10352e-05" y="37.6128" width="88.9024" height="6.83864" rx="1.70966" fill="#F0F0F0"/>
<path d="M41.032 3.68567C41.032 2.78355 41.3885 1.91798 42.0239 1.27753L42.2881 1.01118C42.9301 0.364012 43.804 0 44.7156 0H64.9673V5.16237C64.9673 5.14393 64.9523 5.12898 64.9339 5.12898H64.1125H47.4297C46.729 5.12898 46.161 5.69699 46.161 6.39767V30.7739C46.161 32.6623 44.6301 34.1932 42.7417 34.1932H41.032V3.68567Z" fill="#AA0F03"/>
<path d="M20.5478 30.0635C20.826 29.455 21.4336 29.0647 22.1027 29.0647H66.7997C67.4688 29.0647 68.0764 29.455 68.3546 30.0635L71.8058 37.613H17.0966L20.5478 30.0635Z" fill="#E6E6E6"/>
</svg>
