<svg width="136" height="136" viewBox="0 0 136 136" fill="none" xmlns="http://www.w3.org/2000/svg">
<path d="M0 82.6497C0 80.7073 1.57463 79.1327 3.51703 79.1327H52.7554C54.6978 79.1327 56.2724 80.7073 56.2724 82.6497V104.631L45.7213 105.51V93.2008C45.7213 91.2584 44.1467 89.6838 42.2043 89.6838H14.0681C12.1257 89.6838 10.5511 91.2584 10.5511 93.2008V121.337C10.5511 123.279 12.1257 124.854 14.0681 124.854H42.2043C44.1467 124.854 45.7213 123.279 45.7213 121.337V105.51L56.2724 104.631V131.888C56.2724 133.831 54.6978 135.405 52.7554 135.405H3.51702C1.57462 135.405 0 133.831 0 131.888V82.6497Z" fill="#EE4101"/>
<path d="M63.3066 82.6497C63.3066 80.7073 64.8813 79.1327 66.8237 79.1327H116.062C118.004 79.1327 119.579 80.7073 119.579 82.6497V104.631L109.028 105.51V93.2008C109.028 91.2584 107.453 89.6838 105.511 89.6838H77.3747C75.4323 89.6838 73.8577 91.2584 73.8577 93.2008V121.337C73.8577 123.279 75.4323 124.854 77.3747 124.854H105.511C107.453 124.854 109.028 123.279 109.028 121.337V105.51L119.579 104.631V131.888C119.579 133.831 118.004 135.405 116.062 135.405H66.8237C64.8813 135.405 63.3066 133.831 63.3066 131.888V82.6497Z" fill="#EE4101"/>
<path d="M0 19.3439C0 17.4015 1.57463 15.8268 3.51703 15.8268H52.7554C54.6978 15.8268 56.2724 17.4015 56.2724 19.3439V41.3253L45.7213 42.2045V29.8949C45.7213 27.9525 44.1467 26.3779 42.2043 26.3779H14.0681C12.1257 26.3779 10.5511 27.9525 10.5511 29.8949V58.0312C10.5511 59.9736 12.1257 61.5482 14.0681 61.5482H42.2043C44.1467 61.5482 45.7213 59.9736 45.7213 58.0312V42.2045L56.2724 41.3253V68.5822C56.2724 70.5246 54.6978 72.0993 52.7554 72.0993H3.51702C1.57462 72.0993 0 70.5246 0 68.5822V19.3439Z" fill="#EE4101"/>
<path d="M63.3066 4.50618C63.3066 2.01748 65.3241 0 67.8128 0H130.899C133.388 0 135.406 2.01749 135.406 4.50619V32.6699L121.887 33.7964V18.0248C121.887 15.5361 119.87 13.5186 117.381 13.5186H81.3314C78.8427 13.5186 76.8252 15.5361 76.8252 18.0248V54.0743C76.8252 56.563 78.8427 58.5805 81.3314 58.5805H117.381C119.87 58.5805 121.887 56.563 121.887 54.0743V33.7964L135.406 32.6699V67.5928C135.406 70.0815 133.388 72.099 130.899 72.099H67.8128C65.3241 72.099 63.3066 70.0815 63.3066 67.5928V4.50618Z" fill="#AA0F03"/>
</svg>
